<svg id="visual" viewBox="0 0 960 540" width="960" height="540" xmlns="http://www.w3.org/2000/svg" xmlns:xlink="http://www.w3.org/1999/xlink" version="1.1"><rect x="0" y="0" width="960" height="540" fill="#ffffff"></rect><defs><linearGradient id="grad1_0" x1="43.8%" y1="100%" x2="100%" y2="0%"><stop offset="14.444444444444446%" stop-color="#1997ff" stop-opacity="1"></stop><stop offset="85.55555555555554%" stop-color="#1997ff" stop-opacity="1"></stop></linearGradient></defs><defs><linearGradient id="grad1_1" x1="43.8%" y1="100%" x2="100%" y2="0%"><stop offset="14.444444444444446%" stop-color="#1997ff" stop-opacity="1"></stop><stop offset="85.55555555555554%" stop-color="#acc9ff" stop-opacity="1"></stop></linearGradient></defs><defs><linearGradient id="grad1_2" x1="43.8%" y1="100%" x2="100%" y2="0%"><stop offset="14.444444444444446%" stop-color="#ffffff" stop-opacity="1"></stop><stop offset="85.55555555555554%" stop-color="#acc9ff" stop-opacity="1"></stop></linearGradient></defs><defs><linearGradient id="grad2_0" x1="0%" y1="100%" x2="56.3%" y2="0%"><stop offset="14.444444444444446%" stop-color="#1997ff" stop-opacity="1"></stop><stop offset="85.55555555555554%" stop-color="#1997ff" stop-opacity="1"></stop></linearGradient></defs><defs><linearGradient id="grad2_1" x1="0%" y1="100%" x2="56.3%" y2="0%"><stop offset="14.444444444444446%" stop-color="#acc9ff" stop-opacity="1"></stop><stop offset="85.55555555555554%" stop-color="#1997ff" stop-opacity="1"></stop></linearGradient></defs><defs><linearGradient id="grad2_2" x1="0%" y1="100%" x2="56.3%" y2="0%"><stop offset="14.444444444444446%" stop-color="#acc9ff" stop-opacity="1"></stop><stop offset="85.55555555555554%" stop-color="#ffffff" stop-opacity="1"></stop></linearGradient></defs><g transform="translate(960, 540)"><path d="M-459 0C-410.4 -24 -361.9 -48 -360.7 -82.3C-359.6 -116.7 -405.8 -161.3 -413.5 -199.2C-421.3 -237 -390.6 -268 -354.2 -282.4C-317.7 -296.8 -275.4 -294.6 -248.1 -311.2C-220.9 -327.7 -208.5 -363 -186.1 -386.5C-163.7 -410 -131.3 -421.8 -98.6 -431.9C-65.9 -442 -32.9 -450.5 0 -459L0 0Z" fill="#d7e4ff"></path><path d="M-306 0C-273.6 -16 -241.3 -32 -240.5 -54.9C-239.7 -77.8 -270.5 -107.5 -275.7 -132.8C-280.9 -158 -260.4 -178.7 -236.1 -188.3C-211.8 -197.9 -183.6 -196.4 -165.4 -207.4C-147.2 -218.5 -139 -242 -124.1 -257.7C-109.2 -273.4 -87.5 -281.2 -65.7 -287.9C-43.9 -294.7 -22 -300.3 0 -306L0 0Z" fill="#78afff"></path><path d="M-153 0C-136.8 -8 -120.6 -16 -120.2 -27.4C-119.9 -38.9 -135.3 -53.8 -137.8 -66.4C-140.4 -79 -130.2 -89.3 -118.1 -94.1C-105.9 -98.9 -91.8 -98.2 -82.7 -103.7C-73.6 -109.2 -69.5 -121 -62 -128.8C-54.6 -136.7 -43.8 -140.6 -32.9 -144C-22 -147.3 -11 -150.2 0 -153L0 0Z" fill="#1997ff"></path></g><g transform="translate(0, 0)"><path d="M459 0C468.4 39.3 477.9 78.5 447.5 102.1C417.1 125.7 346.9 133.6 314.4 151.4C281.9 169.2 287.1 196.9 280.7 223.8C274.2 250.8 256.2 277.1 232.6 291.6C209 306.2 179.8 309 156.2 324.3C132.6 339.7 114.6 367.4 89.5 391.9C64.3 416.4 32.2 437.7 0 459L0 0Z" fill="#d7e4ff"></path><path d="M306 0C312.3 26.2 318.6 52.4 298.3 68.1C278.1 83.8 231.3 89.1 209.6 101C188 112.8 191.4 131.2 187.1 149.2C182.8 167.2 170.8 184.7 155 194.4C139.3 204.1 119.9 206 104.1 216.2C88.4 226.4 76.4 244.9 59.6 261.3C42.9 277.6 21.4 291.8 0 306L0 0Z" fill="#78afff"></path><path d="M153 0C156.1 13.1 159.3 26.2 149.2 34C139 41.9 115.6 44.5 104.8 50.5C94 56.4 95.7 65.6 93.6 74.6C91.4 83.6 85.4 92.4 77.5 97.2C69.7 102.1 59.9 103 52.1 108.1C44.2 113.2 38.2 122.5 29.8 130.6C21.4 138.8 10.7 145.9 0 153L0 0Z" fill="#1997ff"></path></g></svg>