<svg id="visual" viewBox="0 0 960 540" width="960" height="540" xmlns="http://www.w3.org/2000/svg" xmlns:xlink="http://www.w3.org/1999/xlink" version="1.1"><rect x="0" y="0" width="960" height="540" fill="#ffffff"></rect><defs><linearGradient id="grad1_0" x1="43.8%" y1="100%" x2="100%" y2="0%"><stop offset="14.444444444444446%" stop-color="#ffffff" stop-opacity="1"></stop><stop offset="85.55555555555554%" stop-color="#ffffff" stop-opacity="1"></stop></linearGradient></defs><defs><linearGradient id="grad2_0" x1="0%" y1="100%" x2="56.3%" y2="0%"><stop offset="14.444444444444446%" stop-color="#ffffff" stop-opacity="1"></stop><stop offset="85.55555555555554%" stop-color="#ffffff" stop-opacity="1"></stop></linearGradient></defs><g transform="translate(960, 540)"><path d="M-486 0C-462.9 -55.3 -439.9 -110.6 -421.3 -174.5C-402.7 -238.4 -388.6 -310.8 -343.7 -343.7C-298.7 -376.6 -222.8 -370 -160.3 -387.1C-97.9 -404.2 -49 -445.1 0 -486L0 0Z" fill="#3c5ffa"></path></g><g transform="translate(0, 0)"><path d="M486 0C469.1 57.4 452.3 114.9 433.3 179.5C414.3 244.1 393.3 315.9 343.7 343.7C294 371.4 215.9 355 153.8 371.4C91.8 387.8 45.9 436.9 0 486L0 0Z" fill="#3c5ffa"></path></g></svg>