<svg id="visual" viewBox="0 0 900 450" width="900" height="450" xmlns="http://www.w3.org/2000/svg" xmlns:xlink="http://www.w3.org/1999/xlink" version="1.1"><rect x="0" y="0" width="900" height="450" fill="#0066FF"></rect><g transform="translate(458.23402546152914 287.74173934179623)"><path d="M118 -194.5C146.7 -165.3 159.3 -121.9 174.9 -81.7C190.5 -41.4 209.1 -4.3 201.6 27.1C194.1 58.5 160.5 84.3 127.9 97C95.3 109.8 63.7 109.6 37.5 108.5C11.3 107.5 -9.6 105.5 -28.2 98.8C-46.9 92.1 -63.3 80.6 -86.8 67.4C-110.2 54.3 -140.7 39.4 -170.1 8.5C-199.4 -22.5 -227.6 -69.7 -217.8 -103C-208 -136.2 -160.2 -155.6 -117.6 -178.5C-75 -201.3 -37.5 -227.7 3.6 -233.3C44.7 -238.9 89.4 -223.8 118 -194.5" fill="#093c88"></path></g></svg>