<svg id="visual" viewBox="0 0 960 540" width="960" height="540" xmlns="http://www.w3.org/2000/svg" xmlns:xlink="http://www.w3.org/1999/xlink" version="1.1"><rect x="0" y="0" width="960" height="540" fill="#0066FF"></rect><g transform="translate(456.58520050141874 315.9737262407561)"><path d="M110.3 -251.8C111.4 -190.5 58.7 -97 155.1 -49.7C251.5 -2.3 497 -1.2 580.2 48C663.3 97.2 584.1 194.3 501.8 266.1C419.4 337.8 334 384.1 249.8 378.5C165.7 372.9 82.8 315.5 34.5 255.7C-13.8 196 -27.7 133.9 -121.3 145C-215 156.1 -388.5 240.3 -485.1 228.3C-581.7 216.3 -601.4 108.2 -507.7 54.1C-414 0 -207 0 -159 -96.1C-111 -192.3 -222 -384.5 -222 -446.3C-222 -508.2 -111 -439.6 -28.2 -390.8C54.7 -342 109.3 -313 110.3 -251.8" fill="#217aff"></path></g></svg>