<svg id="visual" viewBox="0 0 900 400" width="900" height="400" xmlns="http://www.w3.org/2000/svg" xmlns:xlink="http://www.w3.org/1999/xlink" version="1.1"><path d="M0 251L21.5 252.2C43 253.3 86 255.7 128.8 253.3C171.7 251 214.3 244 257.2 244C300 244 343 251 385.8 257.7C428.7 264.3 471.3 270.7 514.2 269.7C557 268.7 600 260.3 642.8 256.7C685.7 253 728.3 254 771.2 255.5C814 257 857 259 878.5 260L900 261L900 401L878.5 401C857 401 814 401 771.2 401C728.3 401 685.7 401 642.8 401C600 401 557 401 514.2 401C471.3 401 428.7 401 385.8 401C343 401 300 401 257.2 401C214.3 401 171.7 401 128.8 401C86 401 43 401 21.5 401L0 401Z" fill="#5d6bf0"></path><path d="M0 298L21.5 297C43 296 86 294 128.8 289.3C171.7 284.7 214.3 277.3 257.2 280.7C300 284 343 298 385.8 297C428.7 296 471.3 280 514.2 281.2C557 282.3 600 300.7 642.8 305.8C685.7 311 728.3 303 771.2 298.3C814 293.7 857 292.3 878.5 291.7L900 291L900 401L878.5 401C857 401 814 401 771.2 401C728.3 401 685.7 401 642.8 401C600 401 557 401 514.2 401C471.3 401 428.7 401 385.8 401C343 401 300 401 257.2 401C214.3 401 171.7 401 128.8 401C86 401 43 401 21.5 401L0 401Z" fill="#525ce2"></path><path d="M0 332L21.5 327.3C43 322.7 86 313.3 128.8 309.7C171.7 306 214.3 308 257.2 313.5C300 319 343 328 385.8 327C428.7 326 471.3 315 514.2 314.7C557 314.3 600 324.7 642.8 327C685.7 329.3 728.3 323.7 771.2 318.7C814 313.7 857 309.3 878.5 307.2L900 305L900 401L878.5 401C857 401 814 401 771.2 401C728.3 401 685.7 401 642.8 401C600 401 557 401 514.2 401C471.3 401 428.7 401 385.8 401C343 401 300 401 257.2 401C214.3 401 171.7 401 128.8 401C86 401 43 401 21.5 401L0 401Z" fill="#484dd3"></path><path d="M0 328L21.5 331C43 334 86 340 128.8 345.2C171.7 350.3 214.3 354.7 257.2 356.8C300 359 343 359 385.8 359C428.7 359 471.3 359 514.2 358.8C557 358.7 600 358.3 642.8 352.5C685.7 346.7 728.3 335.3 771.2 334C814 332.7 857 341.3 878.5 345.7L900 350L900 401L878.5 401C857 401 814 401 771.2 401C728.3 401 685.7 401 642.8 401C600 401 557 401 514.2 401C471.3 401 428.7 401 385.8 401C343 401 300 401 257.2 401C214.3 401 171.7 401 128.8 401C86 401 43 401 21.5 401L0 401Z" fill="#3e3ec5"></path><path d="M0 373L21.5 374C43 375 86 377 128.8 376.5C171.7 376 214.3 373 257.2 370.8C300 368.7 343 367.3 385.8 366C428.7 364.7 471.3 363.3 514.2 360.8C557 358.3 600 354.7 642.8 356.8C685.7 359 728.3 367 771.2 368.8C814 370.7 857 366.3 878.5 364.2L900 362L900 401L878.5 401C857 401 814 401 771.2 401C728.3 401 685.7 401 642.8 401C600 401 557 401 514.2 401C471.3 401 428.7 401 385.8 401C343 401 300 401 257.2 401C214.3 401 171.7 401 128.8 401C86 401 43 401 21.5 401L0 401Z" fill="#332fb6"></path></svg>