<svg id="visual" viewBox="0 0 900 600" width="900" height="600" xmlns="http://www.w3.org/2000/svg" xmlns:xlink="http://www.w3.org/1999/xlink" version="1.1"><rect x="0" y="0" width="900" height="600" fill="#ffffff"></rect><path d="M0 213L21.5 210C43 207 86 201 128.8 202.5C171.7 204 214.3 213 257.2 215.2C300 217.3 343 212.7 385.8 216.7C428.7 220.7 471.3 233.3 514.2 239.8C557 246.3 600 246.7 642.8 244C685.7 241.3 728.3 235.7 771.2 225C814 214.3 857 198.7 878.5 190.8L900 183L900 0L878.5 0C857 0 814 0 771.2 0C728.3 0 685.7 0 642.8 0C600 0 557 0 514.2 0C471.3 0 428.7 0 385.8 0C343 0 300 0 257.2 0C214.3 0 171.7 0 128.8 0C86 0 43 0 21.5 0L0 0Z" fill="#5c85ef"></path><path d="M0 148L21.5 144C43 140 86 132 128.8 134.7C171.7 137.3 214.3 150.7 257.2 158.7C300 166.7 343 169.3 385.8 175.8C428.7 182.3 471.3 192.7 514.2 193.5C557 194.3 600 185.7 642.8 176.7C685.7 167.7 728.3 158.3 771.2 161.7C814 165 857 181 878.5 189L900 197L900 0L878.5 0C857 0 814 0 771.2 0C728.3 0 685.7 0 642.8 0C600 0 557 0 514.2 0C471.3 0 428.7 0 385.8 0C343 0 300 0 257.2 0C214.3 0 171.7 0 128.8 0C86 0 43 0 21.5 0L0 0Z" fill="#669cf5"></path><path d="M0 141L21.5 138.7C43 136.3 86 131.7 128.8 123.8C171.7 116 214.3 105 257.2 105.7C300 106.3 343 118.7 385.8 128C428.7 137.3 471.3 143.7 514.2 147.5C557 151.3 600 152.7 642.8 147.7C685.7 142.7 728.3 131.3 771.2 128.7C814 126 857 132 878.5 135L900 138L900 0L878.5 0C857 0 814 0 771.2 0C728.3 0 685.7 0 642.8 0C600 0 557 0 514.2 0C471.3 0 428.7 0 385.8 0C343 0 300 0 257.2 0C214.3 0 171.7 0 128.8 0C86 0 43 0 21.5 0L0 0Z" fill="#79b1f8"></path><path d="M0 83L21.5 88.2C43 93.3 86 103.7 128.8 103.5C171.7 103.3 214.3 92.7 257.2 92.7C300 92.7 343 103.3 385.8 108C428.7 112.7 471.3 111.3 514.2 110.2C557 109 600 108 642.8 106.8C685.7 105.7 728.3 104.3 771.2 99.5C814 94.7 857 86.3 878.5 82.2L900 78L900 0L878.5 0C857 0 814 0 771.2 0C728.3 0 685.7 0 642.8 0C600 0 557 0 514.2 0C471.3 0 428.7 0 385.8 0C343 0 300 0 257.2 0C214.3 0 171.7 0 128.8 0C86 0 43 0 21.5 0L0 0Z" fill="#93c6fa"></path><path d="M0 24L21.5 26.8C43 29.7 86 35.3 128.8 43.3C171.7 51.3 214.3 61.7 257.2 61.8C300 62 343 52 385.8 47.3C428.7 42.7 471.3 43.3 514.2 44.2C557 45 600 46 642.8 46.7C685.7 47.3 728.3 47.7 771.2 47C814 46.3 857 44.7 878.5 43.8L900 43L900 0L878.5 0C857 0 814 0 771.2 0C728.3 0 685.7 0 642.8 0C600 0 557 0 514.2 0C471.3 0 428.7 0 385.8 0C343 0 300 0 257.2 0C214.3 0 171.7 0 128.8 0C86 0 43 0 21.5 0L0 0Z" fill="#b1d9fb"></path></svg>