<svg id="visual" viewBox="0 0 960 540" width="960" height="540" xmlns="http://www.w3.org/2000/svg" xmlns:xlink="http://www.w3.org/1999/xlink" version="1.1"><rect x="0" y="0" width="960" height="540" fill="#ffffff"></rect><path d="M0 241L20 235C40 229 80 217 120 222.8C160 228.7 200 252.3 240 262.5C280 272.7 320 269.3 360 272.2C400 275 440 284 480 282C520 280 560 267 600 256.5C640 246 680 238 720 221.5C760 205 800 180 840 166.2C880 152.3 920 149.7 940 148.3L960 147L960 0L940 0C920 0 880 0 840 0C800 0 760 0 720 0C680 0 640 0 600 0C560 0 520 0 480 0C440 0 400 0 360 0C320 0 280 0 240 0C200 0 160 0 120 0C80 0 40 0 20 0L0 0Z" fill="#82caff"></path><path d="M0 151L20 156.8C40 162.7 80 174.3 120 188.7C160 203 200 220 240 213.3C280 206.7 320 176.3 360 169.3C400 162.3 440 178.7 480 185.8C520 193 560 191 600 194.5C640 198 680 207 720 210C760 213 800 210 840 207.2C880 204.3 920 201.7 940 200.3L960 199L960 0L940 0C920 0 880 0 840 0C800 0 760 0 720 0C680 0 640 0 600 0C560 0 520 0 480 0C440 0 400 0 360 0C320 0 280 0 240 0C200 0 160 0 120 0C80 0 40 0 20 0L0 0Z" fill="#55a3ec"></path><path d="M0 55L20 57.7C40 60.3 80 65.7 120 84.5C160 103.3 200 135.7 240 144.5C280 153.3 320 138.7 360 138.7C400 138.7 440 153.3 480 161.3C520 169.3 560 170.7 600 155.2C640 139.7 680 107.3 720 98.3C760 89.3 800 103.7 840 107.8C880 112 920 106 940 103L960 100L960 0L940 0C920 0 880 0 840 0C800 0 760 0 720 0C680 0 640 0 600 0C560 0 520 0 480 0C440 0 400 0 360 0C320 0 280 0 240 0C200 0 160 0 120 0C80 0 40 0 20 0L0 0Z" fill="#327dd6"></path><path d="M0 106L20 107.2C40 108.3 80 110.7 120 102.3C160 94 200 75 240 65.8C280 56.7 320 57.3 360 53.7C400 50 440 42 480 49.3C520 56.7 560 79.3 600 88.7C640 98 680 94 720 79.3C760 64.7 800 39.3 840 28C880 16.7 920 19.3 940 20.7L960 22L960 0L940 0C920 0 880 0 840 0C800 0 760 0 720 0C680 0 640 0 600 0C560 0 520 0 480 0C440 0 400 0 360 0C320 0 280 0 240 0C200 0 160 0 120 0C80 0 40 0 20 0L0 0Z" fill="#2255bb"></path></svg>