<svg id="visual" viewBox="0 0 900 200" width="900" height="200" xmlns="http://www.w3.org/2000/svg" xmlns:xlink="http://www.w3.org/1999/xlink" version="1.1"><path d="M0 100L13.7 107.3C27.3 114.7 54.7 129.3 82 134.3C109.3 139.3 136.7 134.7 163.8 128C191 121.3 218 112.7 245.2 107.8C272.3 103 299.7 102 327 104.8C354.3 107.7 381.7 114.3 409 121.5C436.3 128.7 463.7 136.3 491 139.5C518.3 142.7 545.7 141.3 573 137.2C600.3 133 627.7 126 654.8 114.2C682 102.3 709 85.7 736.2 88.8C763.3 92 790.7 115 818 125C845.3 135 872.7 132 886.3 130.5L900 129L900 0L886.3 0C872.7 0 845.3 0 818 0C790.7 0 763.3 0 736.2 0C709 0 682 0 654.8 0C627.7 0 600.3 0 573 0C545.7 0 518.3 0 491 0C463.7 0 436.3 0 409 0C381.7 0 354.3 0 327 0C299.7 0 272.3 0 245.2 0C218 0 191 0 163.8 0C136.7 0 109.3 0 82 0C54.7 0 27.3 0 13.7 0L0 0Z" fill="#ffffff" stroke-linecap="round" stroke-linejoin="miter"></path></svg>