<svg id="visual" viewBox="0 0 900 200" width="900" height="200" xmlns="http://www.w3.org/2000/svg" xmlns:xlink="http://www.w3.org/1999/xlink" version="1.1"><path d="M0 96L10.7 100.8C21.3 105.7 42.7 115.3 64.2 123.8C85.7 132.3 107.3 139.7 128.8 134.8C150.3 130 171.7 113 193 99.7C214.3 86.3 235.7 76.7 257 70.3C278.3 64 299.7 61 321.2 59C342.7 57 364.3 56 385.8 71C407.3 86 428.7 117 450 126.5C471.3 136 492.7 124 514.2 116C535.7 108 557.3 104 578.8 97.8C600.3 91.7 621.7 83.3 643 81.3C664.3 79.3 685.7 83.7 707 82.2C728.3 80.7 749.7 73.3 771.2 67.5C792.7 61.7 814.3 57.3 835.8 59C857.3 60.7 878.7 68.3 889.3 72.2L900 76L900 201L889.3 201C878.7 201 857.3 201 835.8 201C814.3 201 792.7 201 771.2 201C749.7 201 728.3 201 707 201C685.7 201 664.3 201 643 201C621.7 201 600.3 201 578.8 201C557.3 201 535.7 201 514.2 201C492.7 201 471.3 201 450 201C428.7 201 407.3 201 385.8 201C364.3 201 342.7 201 321.2 201C299.7 201 278.3 201 257 201C235.7 201 214.3 201 193 201C171.7 201 150.3 201 128.8 201C107.3 201 85.7 201 64.2 201C42.7 201 21.3 201 10.7 201L0 201Z" fill="#ffffff" stroke-linecap="round" stroke-linejoin="miter"></path></svg>